<svg xmlns="http://www.w3.org/2000/svg" width="200" height="200" viewBox="0 0 200 200">
  <defs>
    <linearGradient id="gradient" x1="0%" y1="0%" x2="100%" y2="100%">
      <stop offset="0%" stop-color="#4a90e2" />
      <stop offset="100%" stop-color="#63b3ed" />
    </linearGradient>
  </defs>
  <circle cx="100" cy="100" r="90" fill="white" stroke="url(#gradient)" stroke-width="10" />
  <g transform="translate(50, 55)">
    <path d="M20,0 L80,0 C90,0 100,10 100,20 L100,70 C100,80 90,90 80,90 L20,90 C10,90 0,80 0,70 L0,20 C0,10 10,0 20,0 Z" fill="url(#gradient)" />
    <rect x="15" y="15" width="70" height="10" rx="2" ry="2" fill="white" />
    <rect x="15" y="35" width="70" height="5" rx="2" ry="2" fill="white" opacity="0.8" />
    <rect x="15" y="45" width="50" height="5" rx="2" ry="2" fill="white" opacity="0.8" />
    <rect x="15" y="55" width="60" height="5" rx="2" ry="2" fill="white" opacity="0.8" />
    <rect x="15" y="65" width="40" height="5" rx="2" ry="2" fill="white" opacity="0.8" />
  </g>
</svg> 